<svg width="609" height="589" viewBox="0 0 609 589" fill="none" xmlns="http://www.w3.org/2000/svg">
<path id="right-wheel" d="M505.005 565.346L499.25 479.996L499.131 479.813L493.321 481.73L466.582 555.668L424.069 527.068L491.804 480.505L491.868 480.322L492.254 480.191L496.62 477.183L425.623 439.43L408.227 457.563L410.984 474.563L492.608 475.941V477.685L409.439 476.273L406.311 456.998L430.109 432.198L465.699 392.819L466.332 394.449L473.87 386.603L501.942 391.372V390.317L503.781 390.369V391.685L545.475 398.764L506.569 472.564L500.898 476.464V477.388L590.802 447.67L580.129 527.187L503.839 481.095L501.154 479.665L546.139 548.442L505.005 565.346ZM501.328 483.1L506.705 562.765L543.519 547.613L501.328 483.1ZM427.269 527.074L465.683 552.906L490.813 483.388L427.269 527.074ZM502.937 478.549L504.858 479.569L578.714 524.205L588.641 450.215L502.937 478.549ZM496.411 472.272L498.718 475.803L499.122 475.524L501.88 393.112L474.543 388.457L467.043 396.303L496.411 472.272ZM427.112 438.23L495.905 474.846L494.71 472.989L465.681 397.777L431.488 433.416L427.112 438.23ZM503.745 393.43L500.992 474.23L505.147 471.37L542.744 400.043L503.745 393.43Z" fill="#090814"/>
<path id="left-wheel" d="M113.255 564.997L107.492 479.613L107.373 479.43L101.564 481.348L74.8338 555.321L32.3212 526.734L100.038 480.171L100.102 479.988L100.488 479.857L104.854 476.849L33.8563 439.091L16.4648 457.224L19.2219 474.224L100.865 475.636V477.384L17.6963 475.972L14.5532 456.667L38.3605 431.855L73.9787 392.449L74.6113 394.079L82.1489 386.233L110.147 390.993V389.938L111.986 389.99V391.306L153.68 398.385L114.807 472.148L109.136 476.048V476.972L199.032 447.261L188.36 526.778L112.07 480.684L109.386 479.254L154.371 548.022L113.255 564.997ZM109.579 482.751L114.956 562.416L151.77 547.264L109.579 482.751ZM35.5106 526.716L73.9239 552.548L99.0544 483.03L35.5106 526.716ZM111.178 478.191L113.099 479.211L186.956 523.847L196.883 449.857L111.178 478.191ZM104.652 471.914L106.959 475.445L107.364 475.166L110.121 392.754L82.7846 388.116L75.284 395.962L104.652 471.914ZM35.324 437.862L104.116 474.478L102.922 472.621L73.8933 397.41L39.709 433.041L35.324 437.862ZM111.984 393.062L109.234 473.894L113.389 471.035L150.987 399.703L111.984 393.062Z" fill="#090814"/>
<path d="M234.377 423.165L195.122 386.424L182.855 398.214L222.11 434.955L234.377 423.165Z" fill="#D6D6E3"/>
<path d="M204.484 368.842C204.484 368.842 227.271 357.442 236.077 350.098C241.378 345.698 247.078 341.749 253.11 338.298L281.697 321.798L341.444 317.439L344.201 327.029C344.201 327.029 348.797 340.978 302.838 353.183C256.878 365.388 233.899 384.568 233.899 384.568C233.899 384.568 204.484 394.124 204.484 368.842Z" fill="#FFB9B9"/>
<path opacity="0.1" d="M236.334 382.678C234.707 383.855 233.899 384.535 233.899 384.535C233.899 384.535 204.482 394.125 204.482 368.842C204.482 368.842 205.907 368.127 208.159 366.933C210.434 370.447 213.621 373.349 217.415 375.363C221.21 377.376 225.485 378.433 229.833 378.433H232.949L236.334 382.678Z" fill="black"/>
<path opacity="0.05" d="M343.338 331.842C340.782 336.977 331.967 345.416 302.838 353.149C265.514 363.061 243.338 377.56 236.334 382.677C234.707 383.854 233.899 384.534 233.899 384.534C233.899 384.534 204.482 394.124 204.482 368.841C204.482 368.841 205.907 368.126 208.159 366.932C214.988 363.384 229.447 355.599 236.048 350.063C241.347 345.661 247.047 341.713 253.081 338.263L281.667 321.763L292.316 320.987L341.413 317.405L344.17 326.995C344.17 326.995 344.817 328.869 343.338 331.842Z" fill="black"/>
<path d="M204.944 363.176L180.589 378.433L251.918 435.1C251.918 435.1 262.397 429 256.882 422.023C256.882 422.023 238.498 407.202 237.578 386.279L232.063 379.305H228.949C223.679 379.307 218.538 377.755 214.238 374.866C209.938 371.977 206.69 367.892 204.943 363.176H204.944Z" fill="#090814"/>
<path opacity="0.1" d="M343.338 331.842C328.63 325.103 292.729 324.379 292.729 324.379L292.343 320.988L341.446 317.405L344.203 326.995C344.203 326.995 344.817 328.869 343.338 331.842Z" fill="black"/>
<path d="M292.727 322.638C292.727 322.638 335.93 323.51 346.959 332.228L341.447 226.738H281.697L292.727 322.638Z" fill="#F2F2F2"/>
<path opacity="0.031" d="M292.727 322.202C292.727 322.202 335.93 323.074 346.959 331.792L341.447 226.302H281.697L292.727 322.202Z" fill="black"/>
<path d="M500.325 374.613C490.57 374.604 480.857 375.849 471.454 378.313C466.604 379.582 461.855 381.175 457.244 383.082C432.673 393.184 412.926 411.569 401.823 434.682C390.719 457.795 389.048 483.992 397.132 508.205C405.217 532.419 422.482 552.929 445.589 565.767C468.696 578.604 496.002 582.858 522.224 577.705C548.446 572.551 571.722 558.357 587.547 537.868C603.373 517.379 610.625 492.052 607.899 466.785C605.174 441.518 592.665 418.107 572.792 401.082C552.92 384.057 527.096 374.627 500.317 374.617L500.325 374.613ZM499.957 554.283C481.315 554.277 463.236 548.222 448.722 537.125C434.209 526.027 424.135 510.555 420.173 493.277C416.212 476 418.601 457.957 426.944 442.145C435.288 426.333 449.083 413.704 466.039 406.355C470.352 404.482 474.83 402.974 479.422 401.848C490.647 399.084 502.364 398.62 513.794 400.485C525.223 402.351 536.103 406.504 545.708 412.667C555.314 418.831 563.425 426.865 569.502 436.233C575.579 445.602 579.483 456.09 580.953 467.001C582.424 477.912 581.428 488.995 578.031 499.512C574.634 510.029 568.914 519.739 561.252 527.997C553.59 536.254 544.162 542.869 533.595 547.401C523.028 551.934 511.564 554.28 499.967 554.283H499.957Z" fill="#090814"/>
<path d="M327.436 258.089C327.436 258.089 435.579 254.602 437.784 267.862C439.99 281.122 329.641 275.534 329.641 275.534C329.641 275.534 320.818 267.155 327.436 258.089Z" fill="#090814"/>
<path d="M239.892 311.12H220.764V468.812H239.892V311.12Z" fill="#6C63FF"/>
<path opacity="0.1" d="M239.892 311.111V323.255C233.531 324.04 227.023 324.537 220.764 324.728V311.111H239.892Z" fill="black"/>
<path d="M238.458 298.043C235.774 297.846 233.104 297.506 230.461 297.023C220.092 295.14 193.95 291.191 186.916 297.895C178.092 306.264 181.032 320.919 204.573 323.012C228.114 325.105 268.572 319.525 276.674 311.147C276.678 311.111 262.035 299.76 238.458 298.043Z" fill="#090814"/>
<path d="M234.744 354.379L435.587 295.07L442.205 309.725L236.215 376.706L234.744 354.379Z" fill="#6C63FF"/>
<path d="M294.335 447.879L439.264 312.514L447.353 323.673L309.043 460.434L294.335 447.879Z" fill="#6C63FF"/>
<path opacity="0.1" d="M479.414 401.851C474.822 402.977 470.344 404.485 466.032 406.358L457.245 383.072C461.856 381.165 466.605 379.571 471.455 378.303L479.414 401.851Z" fill="black"/>
<path d="M504.003 470.202L493.708 475.782L421.883 285.445L418.666 276.927L435.588 267.852L439.826 280.389L504.003 470.202Z" fill="#6C63FF"/>
<path opacity="0.1" d="M439.826 280.389L421.883 285.445L418.666 276.927L435.588 267.852L439.826 280.389Z" fill="black"/>
<path d="M330.376 295.07L431.165 262.27C431.165 262.27 448.822 264.362 442.196 278.32L340.681 306.92C340.681 306.92 325.238 308.322 330.376 295.07Z" fill="#090814"/>
<path d="M214.081 454.244C210.394 438.708 202.929 424.205 192.283 411.891C176.128 393.129 153.504 380.383 128.405 375.902C103.306 371.42 77.3443 375.491 55.1017 387.397C32.8591 399.302 15.7653 418.277 6.83685 440.972C-2.09159 463.667 -2.28078 488.624 6.30267 511.439C14.8861 534.253 31.6905 553.459 53.7503 565.667C75.8101 577.874 101.707 582.299 126.872 578.16C152.037 574.021 174.851 561.585 191.289 543.046C207.727 524.506 216.733 501.056 216.716 476.832C216.723 469.233 215.84 461.657 214.081 454.244ZM108.2 553.934C91.4411 553.917 75.0947 549.004 61.3833 539.865C47.6719 530.726 37.2609 517.803 31.5659 502.854C25.8709 487.905 25.1684 471.655 29.5538 456.314C33.9392 440.973 43.1997 427.286 56.0761 417.112C68.9525 406.939 84.82 400.774 101.521 399.455C118.222 398.136 134.946 401.728 149.419 409.741C163.892 417.755 175.411 429.802 182.411 444.244C189.411 458.686 191.552 474.822 188.542 490.458C185.109 508.288 175.186 524.409 160.503 536.01C145.82 547.61 127.31 553.954 108.2 553.934Z" fill="#090814"/>
<path opacity="0.1" d="M216.719 476.832C216.719 482.174 216.283 487.508 215.417 492.786C206.59 492.202 197.472 491.33 188.537 490.458C190.522 480.092 190.275 469.451 187.811 459.178C196.516 457.434 205.404 455.769 214.081 454.261C215.839 461.669 216.723 469.239 216.717 476.832H216.719Z" fill="black"/>
<path opacity="0.1" d="M239.892 450.26V468.803H220.764V453.111C227.382 452.021 233.817 451.053 239.892 450.26Z" fill="black"/>
<path d="M116.298 476.509C116.298 476.509 270.795 438.15 283.296 452.787C295.798 467.424 309.043 486.97 270.087 493.945C231.132 500.92 113.384 482.08 113.384 482.08L116.298 476.509Z" fill="#6C63FF"/>
<path opacity="0.1" d="M192.287 411.891L172.652 428.935C169.176 424.702 165.245 420.822 160.924 417.358L179.253 399.198C183.972 403.068 188.332 407.315 192.287 411.891Z" fill="black"/>
<path d="M111.151 468.811L226.647 354.378L230.337 380.89L117.034 479.273L111.151 468.811Z" fill="#6C63FF"/>
<path opacity="0.1" d="M109.68 487.652C116.183 487.652 121.455 482.652 121.455 476.484C121.455 470.316 116.183 465.316 109.68 465.316C103.177 465.316 97.9051 470.316 97.9051 476.484C97.9051 482.652 103.177 487.652 109.68 487.652Z" fill="black"/>
<path d="M108.2 487.652C114.703 487.652 119.975 482.652 119.975 476.484C119.975 470.316 114.703 465.316 108.2 465.316C101.697 465.316 96.4248 470.316 96.4248 476.484C96.4248 482.652 101.697 487.652 108.2 487.652Z" fill="#090814"/>
<path opacity="0.1" d="M499.224 486.605C505.727 486.605 510.999 481.605 510.999 475.437C510.999 469.269 505.727 464.269 499.224 464.269C492.72 464.269 487.449 469.269 487.449 475.437C487.449 481.605 492.72 486.605 499.224 486.605Z" fill="black"/>
<path d="M499.958 488C506.462 488 511.734 483 511.734 476.832C511.734 470.664 506.462 465.664 499.958 465.664C493.455 465.664 488.183 470.664 488.183 476.832C488.183 483 493.455 488 499.958 488Z" fill="#090814"/>
<path opacity="0.1" d="M290.649 487.651C303.65 487.651 314.19 477.655 314.19 465.324C314.19 452.993 303.65 442.997 290.649 442.997C277.648 442.997 267.109 452.993 267.109 465.324C267.109 477.655 277.648 487.651 290.649 487.651Z" fill="black"/>
<path d="M292.13 487.651C305.131 487.651 315.67 477.655 315.67 465.324C315.67 452.993 305.131 442.997 292.13 442.997C279.129 442.997 268.589 452.993 268.589 465.324C268.589 477.655 279.129 487.651 292.13 487.651Z" fill="#D6D6E3"/>
<path d="M294.599 464.852C292.529 462.228 288.609 461.691 285.841 463.653C283.074 465.616 282.509 469.335 284.578 471.959L303.26 495.653C305.329 498.278 309.25 498.814 312.017 496.852C314.784 494.889 315.35 491.17 313.28 488.546L294.599 464.852Z" fill="#6C63FF"/>
<path d="M398.434 155.25L396.246 181.5C395.994 184.825 396.041 188.164 396.384 191.482C396.669 194.42 396.384 199.564 393.351 207.41C389.456 217.434 387.443 228.027 387.403 238.71V268.587L366.261 265.1C366.261 265.1 367.181 223.253 363.504 216.279C359.828 209.305 366.261 147.407 366.261 147.407L398.434 155.25Z" fill="#FFB9B9"/>
<path opacity="0.05" d="M397.349 168.258L396.246 181.504C395.998 184.826 396.047 188.163 396.394 191.477C396.678 194.415 396.394 199.559 393.36 207.414C389.465 217.438 387.452 228.031 387.413 238.714V268.591L366.274 265.098C366.274 265.098 367.193 223.251 363.517 216.277C360.916 211.334 363.379 178.842 365.042 160.298C365.732 152.67 366.274 147.404 366.274 147.404L398.445 155.25L397.349 168.258Z" fill="black"/>
<path d="M293.665 355.765L285.714 398.658C284.711 404.385 283.173 410.016 281.118 415.484C276.458 427.567 279.431 444.506 281.697 453.747C282.699 457.827 283.536 460.408 283.536 460.408L259.637 472.613L252.284 467.382V463.892L251.364 386.302C245.849 374.097 247.688 355.789 251.364 348.814C252.41 346.523 253.145 344.115 253.552 341.648C254.814 334.207 255.618 326.703 255.96 319.173C255.96 319.173 270.667 295.634 288.132 311.327C294.563 317.107 297.011 324.666 297.526 331.902C298.426 344.292 293.665 355.765 293.665 355.765Z" fill="#FFB9B9"/>
<path opacity="0.1" d="M297.525 331.877C284.776 339.061 262.595 341.092 253.551 341.624C254.813 334.183 255.617 326.679 255.959 319.149C255.959 319.149 270.666 295.61 288.13 311.303C294.565 317.083 297.01 324.641 297.525 331.877Z" fill="black"/>
<path d="M328.575 310.432C318.801 315.369 309.564 321.209 301 327.868C286.293 339.201 249.525 340.073 249.525 340.073V326.995C250.445 311.303 234.818 293.866 213.677 245.045C200.174 213.869 203.915 196.224 208.382 187.506C209.621 184.859 211.423 182.485 213.677 180.532L328.575 201.455L332.688 213.137L341.447 238.071C341.447 238.071 309.276 239.815 303.76 242.43C298.245 245.045 301.921 268.584 301.921 268.584C296.403 292.995 328.575 310.432 328.575 310.432Z" fill="#F2F2F2"/>
<path opacity="0.1" d="M398.434 155.25L397.349 168.257C381.355 172.616 369.936 158.737 369.936 158.737C368.267 159.161 366.628 159.683 365.028 160.298C365.717 152.67 366.259 147.404 366.259 147.404L398.434 155.25Z" fill="black"/>
<path d="M410.825 121.206C408.426 138.947 407.626 161.306 407.626 161.306C386.484 176.998 369.939 156.947 369.939 156.947C349.97 162.033 340.587 178.606 336.168 193.069C333.8 200.892 332.484 208.969 332.252 217.105C332.252 217.105 326.664 221.464 316.368 222.336C306.634 223.112 292.681 220.706 275.262 208.387C239.414 183.105 207.243 190.079 207.243 190.079C207.243 190.079 213.674 155.207 228.385 144.745C243.095 134.283 254.121 121.206 272.506 81.103C290.891 41 328.577 50.59 328.577 50.59C328.577 50.59 330.415 42.744 364.425 50.59C372.708 52.6492 380.376 56.5017 386.825 61.845C395.737 69.0495 402.602 78.2574 406.795 88.627C410.987 98.9967 412.373 110.198 410.825 121.206Z" fill="#6C63FF"/>
<path d="M376.713 70.249C376.667 71.409 376.566 72.699 376.397 74.137C374.558 89.829 372.72 88.086 352.498 91.573C339.924 93.744 333.388 83.779 330.245 75.933C329.107 73.0908 328.249 70.155 327.68 67.163L371.801 60.189C371.801 60.189 377.089 58.784 376.713 70.249Z" fill="#FFB9B9"/>
<path opacity="0.05" d="M336.17 193.112C333.802 200.935 332.486 209.012 332.254 217.148C332.254 217.148 326.666 221.507 316.37 222.379C316.08 221.824 315.858 221.238 315.708 220.635C313.869 212.789 300.082 198.835 300.082 198.835C290.89 190.989 289.051 177.035 289.051 177.035L273.884 134.753L268.828 130.83C268.828 130.83 289.97 115.138 308.354 128.215C326.738 141.292 321.222 169.19 321.222 169.19L324.899 178.78C328.714 181.84 332.593 187.219 336.17 193.112Z" fill="black"/>
<path d="M271.586 129.967L291.808 176.173C291.808 176.173 293.647 190.122 302.839 197.973C302.839 197.973 316.627 211.922 318.465 219.773C320.304 227.624 346.041 248.543 346.041 248.543C346.041 248.543 369.94 269.466 371.779 277.313C371.779 277.313 393.839 283.413 391.082 295.621C391.082 295.621 407.627 279.929 391.082 265.108C374.537 250.287 352.476 219.774 352.476 219.774C352.476 219.774 339.605 187.506 327.656 177.917L323.98 168.327C323.98 168.327 329.495 140.427 311.111 127.352C292.727 114.277 271.586 129.967 271.586 129.967Z" fill="#FFB9B9"/>
<path opacity="0.1" d="M283.535 460.381L259.631 472.586L252.282 467.354V463.867C260.541 463.311 268.564 461.014 275.768 457.145C277.974 455.959 280.052 454.791 281.716 453.762C282.681 457.8 283.535 460.381 283.535 460.381Z" fill="black"/>
<path opacity="0.1" d="M311.11 93.347L323.979 141.296C323.979 141.296 284.453 147.396 276.18 141.296C267.908 135.196 252.281 133.45 252.281 133.45C252.281 133.45 268.826 88.116 278.019 82.885C287.212 77.654 311.11 93.347 311.11 93.347Z" fill="black"/>
<path d="M311.11 91.604L323.979 139.553C323.979 139.553 284.453 145.653 276.18 139.553C267.908 133.453 252.281 131.707 252.281 131.707C252.281 131.707 268.826 86.373 278.019 81.142C287.212 75.911 311.11 91.604 311.11 91.604Z" fill="#6C63FF"/>
<path opacity="0.1" d="M376.713 69.378C374.139 72.7486 370.864 75.5841 367.091 77.7099C363.319 79.8358 359.127 81.207 354.775 81.7395C350.423 82.2719 346.001 81.9541 341.783 80.8058C337.565 79.6574 333.64 77.7028 330.248 75.062C329.11 72.2198 328.252 69.284 327.683 66.292L371.804 59.318C371.804 59.318 377.089 57.913 376.713 69.378Z" fill="black"/>
<path d="M382.807 50.633C382.807 54.64 381.975 58.6078 380.358 62.3098C378.742 66.0118 376.372 69.3756 373.384 72.209C370.397 75.0423 366.85 77.2899 362.947 78.8233C359.044 80.3568 354.861 81.146 350.636 81.146C346.411 81.146 342.227 80.3568 338.324 78.8233C334.421 77.2899 330.874 75.0423 327.887 72.209C324.9 69.3756 322.53 66.0118 320.913 62.3098C319.296 58.6078 318.464 54.64 318.464 50.633V49.116C318.544 45.0926 319.461 41.1238 321.164 37.438C322.867 33.7522 325.321 30.4221 328.386 27.6393C331.45 24.8565 335.065 22.6759 339.022 21.2231C342.978 19.7703 347.199 19.0738 351.44 19.1738C355.682 19.2738 359.861 20.1683 363.736 21.8058C367.612 23.4433 371.108 25.7915 374.023 28.7153C376.938 31.6391 379.215 35.0807 380.723 38.8422C382.23 42.6037 382.939 46.6108 382.807 50.633Z" fill="#FFB9B9"/>
<path opacity="0.05" d="M232.52 144.352C232.52 144.352 256.419 150.452 263.772 166.152C271.125 181.852 291.016 184.713 291.016 184.713" fill="black"/>
<path d="M322.6 489.587H267.449V506.151H322.6V489.587Z" fill="#D6D6E3"/>
<path d="M275.73 458.847C280.667 456.232 284.996 453.616 285.372 452.535C285.372 452.535 297.827 465.002 308.922 468.873C312.651 470.181 316.222 471.864 319.571 473.895C323.965 476.51 330.234 479.588 335.923 479.588C335.923 479.588 348.792 490.05 323.974 491.793C299.157 493.536 241.252 487.435 241.252 487.435L244.928 465.635C255.671 466.233 266.367 463.876 275.73 458.847Z" fill="#090814"/>
<path d="M395.191 18.96C392.48 15.495 388.585 13.032 385.605 9.77302C384.105 7.8826 382.492 6.07438 380.775 4.35703C377.36 1.38203 372.585 0.163028 367.95 0.0120284C362.872 -0.111785 357.834 0.900154 353.244 2.96595C348.654 5.03174 344.642 8.09335 341.531 11.903L334.265 7.862L331.394 15.029C330.608 14.3814 329.607 14.0184 328.566 14.0044C327.526 13.9905 326.514 14.3264 325.709 14.9528C324.905 15.5791 324.36 16.4553 324.172 17.4261C323.984 18.3968 324.165 19.3994 324.682 20.256C324.105 18.567 321.464 18.208 320.008 19.324C319.334 19.9432 318.833 20.7124 318.552 21.5617C318.271 22.411 318.218 23.3135 318.399 24.187C318.696 26.1198 319.597 27.9239 320.984 29.3673C322.372 30.8108 324.183 31.8276 326.184 32.287C329.347 32.955 333.024 32.253 335.554 34.171C337.583 35.708 338.19 38.507 340.265 39.993C342.816 41.824 346.42 40.977 349.591 41.382C352.355 41.8315 354.841 43.2477 356.558 45.3509C358.274 47.4541 359.097 50.0914 358.864 52.742C359.252 51.0469 359.989 49.4412 361.033 48.017C361.567 47.3131 362.306 46.7715 363.159 46.4577C364.012 46.1439 364.942 46.0714 365.837 46.249C368.725 47.07 369.198 50.803 368.498 53.584C366.642 60.96 359.606 72.884 359.606 72.884C368.74 76.301 379.623 73.07 386.67 66.584C393.718 60.098 397.389 50.917 398.987 41.728C400.344 33.933 400.151 25.302 395.191 18.96Z" fill="#090814"/>
</svg>
